<svg width="180" height="180" viewBox="0 0 180 180" fill="none" xmlns="http://www.w3.org/2000/svg">
<rect width="180" height="180" rx="40" fill="white"/>
<path d="M72.8349 150.18C71.0149 150.18 69.4749 150.133 68.2149 150.04C67.0016 149.9 65.3916 149.69 63.3849 149.41L63.3149 156.76C63.2682 158.02 63.2449 159.817 63.2449 162.15C63.2449 163.363 62.8949 164.32 62.1949 165.02C61.5416 165.673 60.7949 166 59.9549 166C58.4149 166 57.2715 165.813 56.5249 165.44C55.7782 165.02 55.4049 164.297 55.4049 163.27C55.4049 161.917 55.5215 160.003 55.7549 157.53C56.2682 152.21 56.5249 146.75 56.5249 141.15C56.5249 135.923 56.3615 131 56.0349 126.38C56.0815 125.727 56.4082 124.98 57.0149 124.14C57.6682 123.3 58.4849 122.833 59.4649 122.74C60.5382 122.74 62.2415 122.553 64.5749 122.18C67.0016 121.807 68.8449 121.62 70.1049 121.62C73.9316 121.62 76.8949 121.993 78.9949 122.74C81.1416 123.487 83.2882 124.723 85.4349 126.45C87.7682 130.09 88.9349 132.657 88.9349 134.15C88.9349 137.277 88.3049 140.053 87.0449 142.48C85.7849 144.907 83.9416 146.797 81.5149 148.15C79.0882 149.503 76.1949 150.18 72.8349 150.18ZM71.2249 127.57C69.7315 127.57 68.4249 127.663 67.3049 127.85C66.2316 127.99 64.9249 128.247 63.3849 128.62C63.5716 132.913 63.6649 136.04 63.6649 138C63.6649 140.007 63.5949 141.687 63.4549 143.04C65.4616 143.46 67.0482 143.74 68.2149 143.88C69.3816 143.973 70.6882 144.02 72.1349 144.02C75.5882 144.02 78.0149 143.133 79.4149 141.36C80.8616 139.54 81.5849 137.44 81.5849 135.06C81.5849 134.36 81.3749 133.497 80.9549 132.47C80.5349 131.443 80.1616 130.767 79.8349 130.44C78.5749 129.32 77.3382 128.573 76.1249 128.2C74.9582 127.78 73.3249 127.57 71.2249 127.57Z" fill="#216869" fill-opacity="0.8"/>
<circle cx="34" cy="101" r="9" fill="#216869" fill-opacity="0.8"/>
<circle cx="93" cy="94" r="9" fill="#216869" fill-opacity="0.8"/>
<path d="M76.1012 79.506C84.7661 59.4062 96.2788 67.4461 101.971 71.8663" stroke="#216869" stroke-opacity="0.8" stroke-width="3" stroke-linecap="round"/>
<path d="M13.5002 87.6066C23.3285 71.0807 34.1296 76.8905 39.4411 80.1187" stroke="#216869" stroke-opacity="0.8" stroke-width="3" stroke-linecap="round"/>
<path d="M109.978 19.6087C119.119 5.65262 137.843 1.74928 151.799 10.8903L162.845 18.1254C176.801 27.2664 180.705 45.9904 171.563 59.9464L155.997 83.7126C152.312 89.3378 144.766 90.9111 139.14 87.2267C137.728 86.3018 131.736 95.0249 130.382 94.1384C128.974 93.2163 132.208 82.686 130.85 81.7966C124.674 77.7516 118.943 73.9977 113.01 70.1115C99.0539 60.9705 95.1505 42.2465 104.292 28.2905L109.978 19.6087Z" fill="#DCE1DE" fill-opacity="0.5"/>
<path fill-rule="evenodd" clip-rule="evenodd" d="M131.75 27.75C132.762 27.75 133.583 28.5335 133.583 29.5V31.25H146.417V29.5C146.417 28.5335 147.237 27.75 148.25 27.75C149.262 27.75 150.083 28.5335 150.083 29.5V31.2932C154.716 31.7322 158.333 35.4628 158.333 40V55.75C158.333 60.5825 154.229 64.5 149.167 64.5H130.833C125.771 64.5 121.667 60.5825 121.667 55.75V40C121.667 35.4628 125.284 31.7322 129.917 31.2932V29.5C129.917 28.5335 130.737 27.75 131.75 27.75ZM125.646 38.25H154.354C153.599 36.2109 151.561 34.75 149.167 34.75H130.833C128.439 34.75 126.401 36.2109 125.646 38.25ZM154.667 41.75H125.333V55.75C125.333 58.6495 127.796 61 130.833 61H149.167C152.204 61 154.667 58.6495 154.667 55.75V41.75ZM129 47C129 46.0335 129.821 45.25 130.833 45.25H138.167C139.179 45.25 140 46.0335 140 47V54C140 54.9665 139.179 55.75 138.167 55.75H130.833C129.821 55.75 129 54.9665 129 54V47ZM136.333 48.75H132.667V52.25H136.333V48.75Z" fill="#216869" fill-opacity="0.8"/>
</svg>
